<mxfile host="app.diagrams.net" modified="2021-04-24T11:34:05.834Z" agent="5.0 (Windows NT 10.0; Win64; x64) AppleWebKit/537.36 (KHTML, like Gecko) Chrome/90.0.4430.85 Safari/537.36" etag="V2BufuHtTR25HHp5d_kt" version="14.6.6" type="github">
  <diagram id="R2lEEEUBdFMjLlhIrx00" name="Page-1">
    <mxGraphModel dx="3972" dy="1894" grid="1" gridSize="10" guides="1" tooltips="1" connect="1" arrows="1" fold="1" page="1" pageScale="1" pageWidth="850" pageHeight="1100" math="0" shadow="0" extFonts="Permanent Marker^https://fonts.googleapis.com/css?family=Permanent+Marker">
      <root>
        <mxCell id="0" />
        <mxCell id="1" parent="0" />
        <mxCell id="Y0P3rs4uNeHjat1fRH72-158" value="&lt;div align=&quot;left&quot;&gt;&lt;b&gt;&lt;font color=&quot;#0000FF&quot;&gt;TO DO:&lt;/font&gt; &lt;/b&gt;&lt;br&gt;&lt;/div&gt;&lt;div align=&quot;left&quot;&gt;- Nach Bedarf Attribute hinzufÃ¼gen.&lt;/div&gt;" style="text;html=1;strokeColor=none;fillColor=none;align=left;verticalAlign=middle;whiteSpace=wrap;rounded=0;" parent="1" vertex="1">
          <mxGeometry x="-2390" y="1740" width="399" height="130" as="geometry" />
        </mxCell>
        <mxCell id="_R_d_fyW46zc55ehOHIV-56" style="edgeStyle=orthogonalEdgeStyle;rounded=0;orthogonalLoop=1;jettySize=auto;html=1;exitX=1;exitY=0.5;exitDx=0;exitDy=0;entryX=0;entryY=0.5;entryDx=0;entryDy=0;endArrow=none;endFill=0;" parent="1" source="_R_d_fyW46zc55ehOHIV-1" target="_R_d_fyW46zc55ehOHIV-52" edge="1">
          <mxGeometry relative="1" as="geometry" />
        </mxCell>
        <mxCell id="_R_d_fyW46zc55ehOHIV-76" style="edgeStyle=orthogonalEdgeStyle;rounded=0;orthogonalLoop=1;jettySize=auto;html=1;exitX=0;exitY=0.75;exitDx=0;exitDy=0;entryX=0;entryY=0.5;entryDx=0;entryDy=0;endArrow=none;endFill=0;" parent="1" source="_R_d_fyW46zc55ehOHIV-1" target="_R_d_fyW46zc55ehOHIV-74" edge="1">
          <mxGeometry relative="1" as="geometry">
            <Array as="points">
              <mxPoint x="-1850" y="-585" />
              <mxPoint x="-1850" y="-190" />
            </Array>
          </mxGeometry>
        </mxCell>
        <mxCell id="_R_d_fyW46zc55ehOHIV-95" style="edgeStyle=orthogonalEdgeStyle;rounded=0;orthogonalLoop=1;jettySize=auto;html=1;exitX=0.5;exitY=1;exitDx=0;exitDy=0;entryX=0;entryY=0.5;entryDx=0;entryDy=0;endArrow=none;endFill=0;" parent="1" source="_R_d_fyW46zc55ehOHIV-1" target="_R_d_fyW46zc55ehOHIV-91" edge="1">
          <mxGeometry relative="1" as="geometry">
            <Array as="points">
              <mxPoint x="-1780" y="-570" />
              <mxPoint x="-1780" y="-275" />
            </Array>
          </mxGeometry>
        </mxCell>
        <mxCell id="_R_d_fyW46zc55ehOHIV-115" style="edgeStyle=orthogonalEdgeStyle;rounded=0;orthogonalLoop=1;jettySize=auto;html=1;exitX=1;exitY=0;exitDx=0;exitDy=0;entryX=0;entryY=0.5;entryDx=0;entryDy=0;endArrow=none;endFill=0;" parent="1" source="_R_d_fyW46zc55ehOHIV-1" target="_R_d_fyW46zc55ehOHIV-87" edge="1">
          <mxGeometry relative="1" as="geometry">
            <Array as="points">
              <mxPoint x="-1740" y="-630" />
              <mxPoint x="-1740" y="-710" />
            </Array>
          </mxGeometry>
        </mxCell>
        <mxCell id="_R_d_fyW46zc55ehOHIV-116" style="edgeStyle=orthogonalEdgeStyle;rounded=0;orthogonalLoop=1;jettySize=auto;html=1;exitX=0;exitY=0.25;exitDx=0;exitDy=0;endArrow=none;endFill=0;entryX=0.5;entryY=0;entryDx=0;entryDy=0;" parent="1" source="_R_d_fyW46zc55ehOHIV-1" target="_R_d_fyW46zc55ehOHIV-118" edge="1">
          <mxGeometry relative="1" as="geometry">
            <mxPoint x="-841" y="-850" as="targetPoint" />
            <Array as="points">
              <mxPoint x="-1850" y="-615" />
              <mxPoint x="-1850" y="-1000" />
              <mxPoint x="-841" y="-1000" />
              <mxPoint x="-841" y="-750" />
            </Array>
          </mxGeometry>
        </mxCell>
        <mxCell id="_R_d_fyW46zc55ehOHIV-125" style="edgeStyle=orthogonalEdgeStyle;rounded=0;orthogonalLoop=1;jettySize=auto;html=1;exitX=0.5;exitY=0;exitDx=0;exitDy=0;endArrow=none;endFill=0;entryX=0;entryY=0.5;entryDx=0;entryDy=0;" parent="1" source="_R_d_fyW46zc55ehOHIV-1" target="_R_d_fyW46zc55ehOHIV-33" edge="1">
          <mxGeometry relative="1" as="geometry">
            <mxPoint x="-1750.0588235294117" y="-950" as="targetPoint" />
            <Array as="points">
              <mxPoint x="-1780" y="-630" />
              <mxPoint x="-1780" y="-945" />
            </Array>
          </mxGeometry>
        </mxCell>
        <mxCell id="_R_d_fyW46zc55ehOHIV-1" value="" style="rounded=0;whiteSpace=wrap;html=1;" parent="1" vertex="1">
          <mxGeometry x="-1810" y="-630" width="120" height="60" as="geometry" />
        </mxCell>
        <mxCell id="_R_d_fyW46zc55ehOHIV-3" style="edgeStyle=orthogonalEdgeStyle;rounded=0;orthogonalLoop=1;jettySize=auto;html=1;exitX=1;exitY=0.5;exitDx=0;exitDy=0;entryX=0;entryY=0.5;entryDx=0;entryDy=0;endArrow=none;endFill=0;" parent="1" source="_R_d_fyW46zc55ehOHIV-5" target="_R_d_fyW46zc55ehOHIV-27" edge="1">
          <mxGeometry relative="1" as="geometry" />
        </mxCell>
        <mxCell id="_R_d_fyW46zc55ehOHIV-4" style="edgeStyle=orthogonalEdgeStyle;rounded=0;orthogonalLoop=1;jettySize=auto;html=1;exitX=0.5;exitY=1;exitDx=0;exitDy=0;entryX=0.5;entryY=0;entryDx=0;entryDy=0;endArrow=none;endFill=0;" parent="1" source="_R_d_fyW46zc55ehOHIV-5" target="_R_d_fyW46zc55ehOHIV-16" edge="1">
          <mxGeometry relative="1" as="geometry" />
        </mxCell>
        <mxCell id="_R_d_fyW46zc55ehOHIV-55" style="edgeStyle=orthogonalEdgeStyle;rounded=0;orthogonalLoop=1;jettySize=auto;html=1;exitX=0.25;exitY=0;exitDx=0;exitDy=0;entryX=1;entryY=0.5;entryDx=0;entryDy=0;endArrow=none;endFill=0;" parent="1" source="_R_d_fyW46zc55ehOHIV-5" target="_R_d_fyW46zc55ehOHIV-52" edge="1">
          <mxGeometry relative="1" as="geometry" />
        </mxCell>
        <mxCell id="_R_d_fyW46zc55ehOHIV-5" value="" style="rounded=0;whiteSpace=wrap;html=1;" parent="1" vertex="1">
          <mxGeometry x="-1243" y="-550" width="120" height="60" as="geometry" />
        </mxCell>
        <mxCell id="_R_d_fyW46zc55ehOHIV-6" value="Paket" style="text;html=1;strokeColor=none;fillColor=none;align=center;verticalAlign=middle;whiteSpace=wrap;rounded=0;" parent="1" vertex="1">
          <mxGeometry x="-1203" y="-530" width="40" height="20" as="geometry" />
        </mxCell>
        <mxCell id="_R_d_fyW46zc55ehOHIV-7" style="edgeStyle=orthogonalEdgeStyle;rounded=0;orthogonalLoop=1;jettySize=auto;html=1;exitX=0.5;exitY=0;exitDx=0;exitDy=0;entryX=0.5;entryY=1;entryDx=0;entryDy=0;endArrow=none;endFill=0;" parent="1" source="_R_d_fyW46zc55ehOHIV-8" target="_R_d_fyW46zc55ehOHIV-18" edge="1">
          <mxGeometry relative="1" as="geometry" />
        </mxCell>
        <mxCell id="_R_d_fyW46zc55ehOHIV-8" value="" style="rounded=0;whiteSpace=wrap;html=1;" parent="1" vertex="1">
          <mxGeometry x="-1243" y="-220" width="120" height="60" as="geometry" />
        </mxCell>
        <mxCell id="_R_d_fyW46zc55ehOHIV-9" value="Liste" style="text;html=1;strokeColor=none;fillColor=none;align=center;verticalAlign=middle;whiteSpace=wrap;rounded=0;" parent="1" vertex="1">
          <mxGeometry x="-1203" y="-200" width="40" height="20" as="geometry" />
        </mxCell>
        <mxCell id="_R_d_fyW46zc55ehOHIV-10" style="edgeStyle=orthogonalEdgeStyle;rounded=0;orthogonalLoop=1;jettySize=auto;html=1;exitX=0.5;exitY=0;exitDx=0;exitDy=0;entryX=0.5;entryY=1;entryDx=0;entryDy=0;endArrow=none;endFill=0;" parent="1" source="_R_d_fyW46zc55ehOHIV-14" target="_R_d_fyW46zc55ehOHIV-16" edge="1">
          <mxGeometry relative="1" as="geometry" />
        </mxCell>
        <mxCell id="_R_d_fyW46zc55ehOHIV-11" style="edgeStyle=orthogonalEdgeStyle;rounded=0;orthogonalLoop=1;jettySize=auto;html=1;exitX=0.5;exitY=1;exitDx=0;exitDy=0;entryX=0.5;entryY=0;entryDx=0;entryDy=0;endArrow=none;endFill=0;" parent="1" source="_R_d_fyW46zc55ehOHIV-14" target="_R_d_fyW46zc55ehOHIV-18" edge="1">
          <mxGeometry relative="1" as="geometry" />
        </mxCell>
        <mxCell id="_R_d_fyW46zc55ehOHIV-12" style="edgeStyle=orthogonalEdgeStyle;rounded=0;orthogonalLoop=1;jettySize=auto;html=1;exitX=1;exitY=0.25;exitDx=0;exitDy=0;entryX=0;entryY=0.5;entryDx=0;entryDy=0;endArrow=none;endFill=0;" parent="1" source="_R_d_fyW46zc55ehOHIV-14" target="_R_d_fyW46zc55ehOHIV-29" edge="1">
          <mxGeometry relative="1" as="geometry" />
        </mxCell>
        <mxCell id="_R_d_fyW46zc55ehOHIV-13" style="edgeStyle=orthogonalEdgeStyle;rounded=0;orthogonalLoop=1;jettySize=auto;html=1;exitX=1;exitY=0.75;exitDx=0;exitDy=0;entryX=0;entryY=0.5;entryDx=0;entryDy=0;endArrow=none;endFill=0;" parent="1" source="_R_d_fyW46zc55ehOHIV-14" target="_R_d_fyW46zc55ehOHIV-31" edge="1">
          <mxGeometry relative="1" as="geometry" />
        </mxCell>
        <mxCell id="_R_d_fyW46zc55ehOHIV-14" value="" style="rounded=0;whiteSpace=wrap;html=1;" parent="1" vertex="1">
          <mxGeometry x="-1243" y="-390" width="120" height="60" as="geometry" />
        </mxCell>
        <mxCell id="_R_d_fyW46zc55ehOHIV-15" value="Barcode" style="text;html=1;strokeColor=none;fillColor=none;align=center;verticalAlign=middle;whiteSpace=wrap;rounded=0;" parent="1" vertex="1">
          <mxGeometry x="-1202" y="-370" width="40" height="20" as="geometry" />
        </mxCell>
        <mxCell id="_R_d_fyW46zc55ehOHIV-16" value="" style="rhombus;whiteSpace=wrap;html=1;" parent="1" vertex="1">
          <mxGeometry x="-1244" y="-465" width="120" height="50" as="geometry" />
        </mxCell>
        <mxCell id="_R_d_fyW46zc55ehOHIV-17" value="identifiziert" style="text;html=1;strokeColor=none;fillColor=none;align=center;verticalAlign=middle;whiteSpace=wrap;rounded=0;" parent="1" vertex="1">
          <mxGeometry x="-1209" y="-450" width="40" height="20" as="geometry" />
        </mxCell>
        <mxCell id="_R_d_fyW46zc55ehOHIV-18" value="" style="rhombus;whiteSpace=wrap;html=1;" parent="1" vertex="1">
          <mxGeometry x="-1243" y="-290" width="120" height="50" as="geometry" />
        </mxCell>
        <mxCell id="_R_d_fyW46zc55ehOHIV-19" value="enthÃ¤lt" style="text;html=1;strokeColor=none;fillColor=none;align=center;verticalAlign=middle;whiteSpace=wrap;rounded=0;" parent="1" vertex="1">
          <mxGeometry x="-1208" y="-275" width="40" height="20" as="geometry" />
        </mxCell>
        <mxCell id="_R_d_fyW46zc55ehOHIV-20" style="edgeStyle=orthogonalEdgeStyle;rounded=0;orthogonalLoop=1;jettySize=auto;html=1;exitX=0.5;exitY=1;exitDx=0;exitDy=0;entryX=0.5;entryY=0;entryDx=0;entryDy=0;endArrow=none;endFill=0;" parent="1" source="_R_d_fyW46zc55ehOHIV-22" target="_R_d_fyW46zc55ehOHIV-25" edge="1">
          <mxGeometry relative="1" as="geometry" />
        </mxCell>
        <mxCell id="_R_d_fyW46zc55ehOHIV-22" value="" style="rounded=0;whiteSpace=wrap;html=1;" parent="1" vertex="1">
          <mxGeometry x="-1243" y="-860" width="120" height="60" as="geometry" />
        </mxCell>
        <mxCell id="_R_d_fyW46zc55ehOHIV-23" value="Schaden" style="text;html=1;strokeColor=none;fillColor=none;align=center;verticalAlign=middle;whiteSpace=wrap;rounded=0;" parent="1" vertex="1">
          <mxGeometry x="-1203" y="-840" width="40" height="20" as="geometry" />
        </mxCell>
        <mxCell id="_R_d_fyW46zc55ehOHIV-24" style="edgeStyle=orthogonalEdgeStyle;rounded=0;orthogonalLoop=1;jettySize=auto;html=1;exitX=0.5;exitY=1;exitDx=0;exitDy=0;endArrow=none;endFill=0;" parent="1" source="_R_d_fyW46zc55ehOHIV-25" target="_R_d_fyW46zc55ehOHIV-5" edge="1">
          <mxGeometry relative="1" as="geometry" />
        </mxCell>
        <mxCell id="_R_d_fyW46zc55ehOHIV-25" value="" style="rhombus;whiteSpace=wrap;html=1;" parent="1" vertex="1">
          <mxGeometry x="-1243" y="-700" width="120" height="50" as="geometry" />
        </mxCell>
        <mxCell id="_R_d_fyW46zc55ehOHIV-26" value="hat" style="text;html=1;strokeColor=none;fillColor=none;align=center;verticalAlign=middle;whiteSpace=wrap;rounded=0;" parent="1" vertex="1">
          <mxGeometry x="-1205" y="-685" width="40" height="20" as="geometry" />
        </mxCell>
        <mxCell id="_R_d_fyW46zc55ehOHIV-27" value="" style="rhombus;whiteSpace=wrap;html=1;" parent="1" vertex="1">
          <mxGeometry x="-1064" y="-545" width="120" height="50" as="geometry" />
        </mxCell>
        <mxCell id="_R_d_fyW46zc55ehOHIV-28" value="in" style="text;html=1;strokeColor=none;fillColor=none;align=center;verticalAlign=middle;whiteSpace=wrap;rounded=0;" parent="1" vertex="1">
          <mxGeometry x="-1025" y="-530" width="40" height="20" as="geometry" />
        </mxCell>
        <mxCell id="_R_d_fyW46zc55ehOHIV-29" value="" style="ellipse;whiteSpace=wrap;html=1;" parent="1" vertex="1">
          <mxGeometry x="-1074" y="-400" width="120" height="50" as="geometry" />
        </mxCell>
        <mxCell id="_R_d_fyW46zc55ehOHIV-30" value="Paket_ID" style="text;html=1;strokeColor=none;fillColor=none;align=center;verticalAlign=middle;whiteSpace=wrap;rounded=0;" parent="1" vertex="1">
          <mxGeometry x="-1034" y="-385" width="40" height="20" as="geometry" />
        </mxCell>
        <mxCell id="_R_d_fyW46zc55ehOHIV-31" value="" style="ellipse;whiteSpace=wrap;html=1;" parent="1" vertex="1">
          <mxGeometry x="-1074" y="-345" width="120" height="50" as="geometry" />
        </mxCell>
        <mxCell id="_R_d_fyW46zc55ehOHIV-32" value="Abteilungs_ID" style="text;html=1;strokeColor=none;fillColor=none;align=center;verticalAlign=middle;whiteSpace=wrap;rounded=0;" parent="1" vertex="1">
          <mxGeometry x="-1034" y="-330" width="40" height="20" as="geometry" />
        </mxCell>
        <mxCell id="_R_d_fyW46zc55ehOHIV-123" style="edgeStyle=orthogonalEdgeStyle;rounded=0;orthogonalLoop=1;jettySize=auto;html=1;exitX=0.5;exitY=1;exitDx=0;exitDy=0;entryX=0.5;entryY=0;entryDx=0;entryDy=0;endArrow=none;endFill=0;" parent="1" source="_R_d_fyW46zc55ehOHIV-33" target="_R_d_fyW46zc55ehOHIV-22" edge="1">
          <mxGeometry relative="1" as="geometry" />
        </mxCell>
        <mxCell id="_R_d_fyW46zc55ehOHIV-33" value="" style="rhombus;whiteSpace=wrap;html=1;" parent="1" vertex="1">
          <mxGeometry x="-1243" y="-970" width="120" height="50" as="geometry" />
        </mxCell>
        <mxCell id="_R_d_fyW46zc55ehOHIV-34" value="notiert" style="text;html=1;strokeColor=none;fillColor=none;align=center;verticalAlign=middle;whiteSpace=wrap;rounded=0;" parent="1" vertex="1">
          <mxGeometry x="-1204" y="-955" width="40" height="20" as="geometry" />
        </mxCell>
        <mxCell id="_R_d_fyW46zc55ehOHIV-36" value="N" style="text;html=1;strokeColor=none;fillColor=none;align=center;verticalAlign=middle;whiteSpace=wrap;rounded=0;" parent="1" vertex="1">
          <mxGeometry x="-1275" y="-538" width="40" height="20" as="geometry" />
        </mxCell>
        <mxCell id="_R_d_fyW46zc55ehOHIV-37" value="1" style="text;html=1;strokeColor=none;fillColor=none;align=center;verticalAlign=middle;whiteSpace=wrap;rounded=0;" parent="1" vertex="1">
          <mxGeometry x="-1194" y="-410" width="40" height="20" as="geometry" />
        </mxCell>
        <mxCell id="_R_d_fyW46zc55ehOHIV-38" value="1" style="text;html=1;strokeColor=none;fillColor=none;align=center;verticalAlign=middle;whiteSpace=wrap;rounded=0;" parent="1" vertex="1">
          <mxGeometry x="-1194" y="-490" width="40" height="20" as="geometry" />
        </mxCell>
        <mxCell id="_R_d_fyW46zc55ehOHIV-39" value="1" style="text;html=1;strokeColor=none;fillColor=none;align=center;verticalAlign=middle;whiteSpace=wrap;rounded=0;" parent="1" vertex="1">
          <mxGeometry x="-1192" y="-240" width="40" height="20" as="geometry" />
        </mxCell>
        <mxCell id="_R_d_fyW46zc55ehOHIV-40" value="N" style="text;html=1;strokeColor=none;fillColor=none;align=center;verticalAlign=middle;whiteSpace=wrap;rounded=0;" parent="1" vertex="1">
          <mxGeometry x="-1193" y="-327" width="40" height="20" as="geometry" />
        </mxCell>
        <mxCell id="_R_d_fyW46zc55ehOHIV-41" value="1" style="text;html=1;strokeColor=none;fillColor=none;align=center;verticalAlign=middle;whiteSpace=wrap;rounded=0;" parent="1" vertex="1">
          <mxGeometry x="-1273" y="-213" width="40" height="20" as="geometry" />
        </mxCell>
        <mxCell id="_R_d_fyW46zc55ehOHIV-42" value="N" style="text;html=1;strokeColor=none;fillColor=none;align=center;verticalAlign=middle;whiteSpace=wrap;rounded=0;" parent="1" vertex="1">
          <mxGeometry x="-1245" y="-570" width="40" height="20" as="geometry" />
        </mxCell>
        <mxCell id="_R_d_fyW46zc55ehOHIV-43" value="1" style="text;html=1;strokeColor=none;fillColor=none;align=center;verticalAlign=middle;whiteSpace=wrap;rounded=0;" parent="1" vertex="1">
          <mxGeometry x="-1212" y="-569" width="40" height="20" as="geometry" />
        </mxCell>
        <mxCell id="_R_d_fyW46zc55ehOHIV-44" value="N" style="text;html=1;strokeColor=none;fillColor=none;align=center;verticalAlign=middle;whiteSpace=wrap;rounded=0;" parent="1" vertex="1">
          <mxGeometry x="-1196" y="-797" width="40" height="20" as="geometry" />
        </mxCell>
        <mxCell id="_R_d_fyW46zc55ehOHIV-45" value="N" style="text;html=1;strokeColor=none;fillColor=none;align=center;verticalAlign=middle;whiteSpace=wrap;rounded=0;" parent="1" vertex="1">
          <mxGeometry x="-1220" y="-885" width="40" height="20" as="geometry" />
        </mxCell>
        <mxCell id="_R_d_fyW46zc55ehOHIV-46" value="N" style="text;html=1;strokeColor=none;fillColor=none;align=center;verticalAlign=middle;whiteSpace=wrap;rounded=0;" parent="1" vertex="1">
          <mxGeometry x="-1260" y="-490" width="40" height="20" as="geometry" />
        </mxCell>
        <mxCell id="_R_d_fyW46zc55ehOHIV-47" value="N" style="text;html=1;strokeColor=none;fillColor=none;align=center;verticalAlign=middle;whiteSpace=wrap;rounded=0;" parent="1" vertex="1">
          <mxGeometry x="-1134" y="-538" width="40" height="20" as="geometry" />
        </mxCell>
        <mxCell id="_R_d_fyW46zc55ehOHIV-48" value="1" style="text;html=1;strokeColor=none;fillColor=none;align=center;verticalAlign=middle;whiteSpace=wrap;rounded=0;" parent="1" vertex="1">
          <mxGeometry x="-1134" y="-220" width="40" height="20" as="geometry" />
        </mxCell>
        <mxCell id="_R_d_fyW46zc55ehOHIV-50" value="Mitarbeiter" style="text;html=1;strokeColor=none;fillColor=none;align=center;verticalAlign=middle;whiteSpace=wrap;rounded=0;" parent="1" vertex="1">
          <mxGeometry x="-1770" y="-610" width="40" height="20" as="geometry" />
        </mxCell>
        <mxCell id="_R_d_fyW46zc55ehOHIV-52" value="" style="rhombus;whiteSpace=wrap;html=1;" parent="1" vertex="1">
          <mxGeometry x="-1520" y="-625" width="120" height="50" as="geometry" />
        </mxCell>
        <mxCell id="_R_d_fyW46zc55ehOHIV-53" value="holt" style="text;html=1;strokeColor=none;fillColor=none;align=center;verticalAlign=middle;whiteSpace=wrap;rounded=0;" parent="1" vertex="1">
          <mxGeometry x="-1481" y="-610" width="40" height="20" as="geometry" />
        </mxCell>
        <mxCell id="_R_d_fyW46zc55ehOHIV-57" style="edgeStyle=orthogonalEdgeStyle;rounded=0;orthogonalLoop=1;jettySize=auto;html=1;exitX=0.5;exitY=1;exitDx=0;exitDy=0;entryX=0.5;entryY=0;entryDx=0;entryDy=0;endArrow=none;endFill=0;" parent="1" source="_R_d_fyW46zc55ehOHIV-60" target="_R_d_fyW46zc55ehOHIV-64" edge="1">
          <mxGeometry relative="1" as="geometry" />
        </mxCell>
        <mxCell id="_R_d_fyW46zc55ehOHIV-58" style="edgeStyle=orthogonalEdgeStyle;rounded=0;orthogonalLoop=1;jettySize=auto;html=1;exitX=0.25;exitY=1;exitDx=0;exitDy=0;entryX=0;entryY=0;entryDx=0;entryDy=0;endArrow=none;endFill=0;" parent="1" source="_R_d_fyW46zc55ehOHIV-60" target="_R_d_fyW46zc55ehOHIV-66" edge="1">
          <mxGeometry relative="1" as="geometry" />
        </mxCell>
        <mxCell id="_R_d_fyW46zc55ehOHIV-59" style="edgeStyle=orthogonalEdgeStyle;rounded=0;orthogonalLoop=1;jettySize=auto;html=1;exitX=1;exitY=0.5;exitDx=0;exitDy=0;entryX=0;entryY=0.5;entryDx=0;entryDy=0;endArrow=none;endFill=0;" parent="1" source="_R_d_fyW46zc55ehOHIV-60" target="_R_d_fyW46zc55ehOHIV-62" edge="1">
          <mxGeometry relative="1" as="geometry" />
        </mxCell>
        <mxCell id="_R_d_fyW46zc55ehOHIV-60" value="" style="rounded=0;whiteSpace=wrap;html=1;" parent="1" vertex="1">
          <mxGeometry x="-1600" y="-550" width="120" height="60" as="geometry" />
        </mxCell>
        <mxCell id="_R_d_fyW46zc55ehOHIV-61" value="Abteilung" style="text;html=1;strokeColor=none;fillColor=none;align=center;verticalAlign=middle;whiteSpace=wrap;rounded=0;" parent="1" vertex="1">
          <mxGeometry x="-1560" y="-530" width="40" height="20" as="geometry" />
        </mxCell>
        <mxCell id="_R_d_fyW46zc55ehOHIV-69" style="edgeStyle=orthogonalEdgeStyle;rounded=0;orthogonalLoop=1;jettySize=auto;html=1;exitX=1;exitY=0.5;exitDx=0;exitDy=0;endArrow=none;endFill=0;" parent="1" source="_R_d_fyW46zc55ehOHIV-62" target="_R_d_fyW46zc55ehOHIV-5" edge="1">
          <mxGeometry relative="1" as="geometry" />
        </mxCell>
        <mxCell id="_R_d_fyW46zc55ehOHIV-62" value="" style="rhombus;whiteSpace=wrap;html=1;" parent="1" vertex="1">
          <mxGeometry x="-1409" y="-545" width="120" height="50" as="geometry" />
        </mxCell>
        <mxCell id="_R_d_fyW46zc55ehOHIV-63" value="fÃ¼r" style="text;html=1;strokeColor=none;fillColor=none;align=center;verticalAlign=middle;whiteSpace=wrap;rounded=0;" parent="1" vertex="1">
          <mxGeometry x="-1370" y="-530" width="40" height="20" as="geometry" />
        </mxCell>
        <mxCell id="_R_d_fyW46zc55ehOHIV-64" value="" style="ellipse;whiteSpace=wrap;html=1;" parent="1" vertex="1">
          <mxGeometry x="-1529" y="-460" width="120" height="50" as="geometry" />
        </mxCell>
        <mxCell id="_R_d_fyW46zc55ehOHIV-65" value="Bezeichnung" style="text;html=1;strokeColor=none;fillColor=none;align=center;verticalAlign=middle;whiteSpace=wrap;rounded=0;" parent="1" vertex="1">
          <mxGeometry x="-1489" y="-445" width="40" height="20" as="geometry" />
        </mxCell>
        <mxCell id="_R_d_fyW46zc55ehOHIV-66" value="" style="ellipse;whiteSpace=wrap;html=1;" parent="1" vertex="1">
          <mxGeometry x="-1587" y="-405" width="120" height="50" as="geometry" />
        </mxCell>
        <mxCell id="_R_d_fyW46zc55ehOHIV-67" value="Abteilungs_ID" style="text;html=1;strokeColor=none;fillColor=none;align=center;verticalAlign=middle;whiteSpace=wrap;rounded=0;" parent="1" vertex="1">
          <mxGeometry x="-1547" y="-390" width="40" height="20" as="geometry" />
        </mxCell>
        <mxCell id="_R_d_fyW46zc55ehOHIV-68" value="1" style="text;html=1;strokeColor=none;fillColor=none;align=center;verticalAlign=middle;whiteSpace=wrap;rounded=0;" parent="1" vertex="1">
          <mxGeometry x="-1489" y="-542" width="40" height="20" as="geometry" />
        </mxCell>
        <mxCell id="_R_d_fyW46zc55ehOHIV-77" style="edgeStyle=orthogonalEdgeStyle;rounded=0;orthogonalLoop=1;jettySize=auto;html=1;exitX=1;exitY=0.5;exitDx=0;exitDy=0;entryX=0;entryY=0.5;entryDx=0;entryDy=0;endArrow=none;endFill=0;" parent="1" source="_R_d_fyW46zc55ehOHIV-74" target="_R_d_fyW46zc55ehOHIV-8" edge="1">
          <mxGeometry relative="1" as="geometry" />
        </mxCell>
        <mxCell id="_R_d_fyW46zc55ehOHIV-74" value="" style="rhombus;whiteSpace=wrap;html=1;" parent="1" vertex="1">
          <mxGeometry x="-1659" y="-215" width="120" height="50" as="geometry" />
        </mxCell>
        <mxCell id="_R_d_fyW46zc55ehOHIV-75" value="kontrolliert" style="text;html=1;strokeColor=none;fillColor=none;align=center;verticalAlign=middle;whiteSpace=wrap;rounded=0;" parent="1" vertex="1">
          <mxGeometry x="-1620" y="-200" width="40" height="20" as="geometry" />
        </mxCell>
        <mxCell id="_R_d_fyW46zc55ehOHIV-84" style="edgeStyle=orthogonalEdgeStyle;rounded=0;orthogonalLoop=1;jettySize=auto;html=1;exitX=0;exitY=0.5;exitDx=0;exitDy=0;entryX=1;entryY=0.5;entryDx=0;entryDy=0;endArrow=none;endFill=0;" parent="1" source="_R_d_fyW46zc55ehOHIV-85" target="_R_d_fyW46zc55ehOHIV-87" edge="1">
          <mxGeometry relative="1" as="geometry" />
        </mxCell>
        <mxCell id="_R_d_fyW46zc55ehOHIV-85" value="" style="rounded=0;whiteSpace=wrap;html=1;" parent="1" vertex="1">
          <mxGeometry x="-1434" y="-740" width="120" height="60" as="geometry" />
        </mxCell>
        <mxCell id="_R_d_fyW46zc55ehOHIV-86" value="Finanzabteilung" style="text;html=1;strokeColor=none;fillColor=none;align=center;verticalAlign=middle;whiteSpace=wrap;rounded=0;" parent="1" vertex="1">
          <mxGeometry x="-1394" y="-720" width="40" height="20" as="geometry" />
        </mxCell>
        <mxCell id="_R_d_fyW46zc55ehOHIV-87" value="" style="rhombus;whiteSpace=wrap;html=1;" parent="1" vertex="1">
          <mxGeometry x="-1615" y="-735" width="120" height="50" as="geometry" />
        </mxCell>
        <mxCell id="_R_d_fyW46zc55ehOHIV-88" value="informiert" style="text;html=1;strokeColor=none;fillColor=none;align=center;verticalAlign=middle;whiteSpace=wrap;rounded=0;" parent="1" vertex="1">
          <mxGeometry x="-1576" y="-720" width="40" height="20" as="geometry" />
        </mxCell>
        <mxCell id="_R_d_fyW46zc55ehOHIV-89" value="1" style="text;html=1;strokeColor=none;fillColor=none;align=center;verticalAlign=middle;whiteSpace=wrap;rounded=0;" parent="1" vertex="1">
          <mxGeometry x="-1463" y="-729" width="40" height="20" as="geometry" />
        </mxCell>
        <mxCell id="_R_d_fyW46zc55ehOHIV-91" value="" style="rhombus;whiteSpace=wrap;html=1;" parent="1" vertex="1">
          <mxGeometry x="-1509" y="-300" width="120" height="50" as="geometry" />
        </mxCell>
        <mxCell id="_R_d_fyW46zc55ehOHIV-94" value="" style="endArrow=none;html=1;exitX=1;exitY=0.5;exitDx=0;exitDy=0;" parent="1" source="_R_d_fyW46zc55ehOHIV-91" edge="1">
          <mxGeometry width="50" height="50" relative="1" as="geometry">
            <mxPoint x="-1293" y="-440" as="sourcePoint" />
            <mxPoint x="-1243" y="-490" as="targetPoint" />
          </mxGeometry>
        </mxCell>
        <mxCell id="_R_d_fyW46zc55ehOHIV-96" value="retour" style="text;html=1;strokeColor=none;fillColor=none;align=center;verticalAlign=middle;whiteSpace=wrap;rounded=0;" parent="1" vertex="1">
          <mxGeometry x="-1469" y="-285" width="40" height="20" as="geometry" />
        </mxCell>
        <mxCell id="_R_d_fyW46zc55ehOHIV-97" style="edgeStyle=orthogonalEdgeStyle;rounded=0;orthogonalLoop=1;jettySize=auto;html=1;exitX=0;exitY=0.5;exitDx=0;exitDy=0;entryX=1;entryY=0.5;entryDx=0;entryDy=0;endArrow=none;endFill=0;" parent="1" source="_R_d_fyW46zc55ehOHIV-98" target="_R_d_fyW46zc55ehOHIV-27" edge="1">
          <mxGeometry relative="1" as="geometry">
            <mxPoint x="-790.0000000000009" y="-519" as="targetPoint" />
          </mxGeometry>
        </mxCell>
        <mxCell id="_R_d_fyW46zc55ehOHIV-110" style="edgeStyle=orthogonalEdgeStyle;rounded=0;orthogonalLoop=1;jettySize=auto;html=1;exitX=0.75;exitY=1;exitDx=0;exitDy=0;entryX=0.5;entryY=0;entryDx=0;entryDy=0;endArrow=none;endFill=0;" parent="1" source="_R_d_fyW46zc55ehOHIV-98" target="_R_d_fyW46zc55ehOHIV-105" edge="1">
          <mxGeometry relative="1" as="geometry">
            <Array as="points">
              <mxPoint x="-840" y="-490" />
              <mxPoint x="-840" y="-215" />
            </Array>
          </mxGeometry>
        </mxCell>
        <mxCell id="_R_d_fyW46zc55ehOHIV-98" value="" style="rounded=0;whiteSpace=wrap;html=1;" parent="1" vertex="1">
          <mxGeometry x="-900" y="-550" width="120" height="60" as="geometry" />
        </mxCell>
        <mxCell id="_R_d_fyW46zc55ehOHIV-99" value="Lager" style="text;html=1;strokeColor=none;fillColor=none;align=center;verticalAlign=middle;whiteSpace=wrap;rounded=0;" parent="1" vertex="1">
          <mxGeometry x="-860" y="-530" width="40" height="20" as="geometry" />
        </mxCell>
        <mxCell id="_R_d_fyW46zc55ehOHIV-102" value="1" style="text;html=1;strokeColor=none;fillColor=none;align=center;verticalAlign=middle;whiteSpace=wrap;rounded=0;" parent="1" vertex="1">
          <mxGeometry x="-930" y="-539" width="40" height="20" as="geometry" />
        </mxCell>
        <mxCell id="_R_d_fyW46zc55ehOHIV-103" value="1" style="text;html=1;strokeColor=none;fillColor=none;align=center;verticalAlign=middle;whiteSpace=wrap;rounded=0;" parent="1" vertex="1">
          <mxGeometry x="-851" y="-573" width="40" height="20" as="geometry" />
        </mxCell>
        <mxCell id="_R_d_fyW46zc55ehOHIV-104" value="1" style="text;html=1;strokeColor=none;fillColor=none;align=center;verticalAlign=middle;whiteSpace=wrap;rounded=0;" parent="1" vertex="1">
          <mxGeometry x="-880" y="-490" width="40" height="20" as="geometry" />
        </mxCell>
        <mxCell id="_R_d_fyW46zc55ehOHIV-114" style="edgeStyle=orthogonalEdgeStyle;rounded=0;orthogonalLoop=1;jettySize=auto;html=1;exitX=0;exitY=0.5;exitDx=0;exitDy=0;entryX=1;entryY=0.5;entryDx=0;entryDy=0;endArrow=none;endFill=0;" parent="1" source="_R_d_fyW46zc55ehOHIV-105" target="_R_d_fyW46zc55ehOHIV-8" edge="1">
          <mxGeometry relative="1" as="geometry" />
        </mxCell>
        <mxCell id="_R_d_fyW46zc55ehOHIV-105" value="" style="rhombus;whiteSpace=wrap;html=1;" parent="1" vertex="1">
          <mxGeometry x="-898" y="-215" width="120" height="50" as="geometry" />
        </mxCell>
        <mxCell id="_R_d_fyW46zc55ehOHIV-106" value="Inventar" style="text;html=1;strokeColor=none;fillColor=none;align=center;verticalAlign=middle;whiteSpace=wrap;rounded=0;" parent="1" vertex="1">
          <mxGeometry x="-859" y="-200" width="40" height="20" as="geometry" />
        </mxCell>
        <mxCell id="_R_d_fyW46zc55ehOHIV-120" style="edgeStyle=orthogonalEdgeStyle;rounded=0;orthogonalLoop=1;jettySize=auto;html=1;exitX=0.5;exitY=1;exitDx=0;exitDy=0;entryX=0.5;entryY=0;entryDx=0;entryDy=0;endArrow=none;endFill=0;" parent="1" source="_R_d_fyW46zc55ehOHIV-118" target="_R_d_fyW46zc55ehOHIV-98" edge="1">
          <mxGeometry relative="1" as="geometry" />
        </mxCell>
        <mxCell id="_R_d_fyW46zc55ehOHIV-118" value="" style="rhombus;whiteSpace=wrap;html=1;" parent="1" vertex="1">
          <mxGeometry x="-900" y="-750" width="120" height="50" as="geometry" />
        </mxCell>
        <mxCell id="_R_d_fyW46zc55ehOHIV-119" value="verwaltet" style="text;html=1;strokeColor=none;fillColor=none;align=center;verticalAlign=middle;whiteSpace=wrap;rounded=0;" parent="1" vertex="1">
          <mxGeometry x="-861" y="-735" width="40" height="20" as="geometry" />
        </mxCell>
        <mxCell id="_R_d_fyW46zc55ehOHIV-128" style="edgeStyle=orthogonalEdgeStyle;rounded=0;orthogonalLoop=1;jettySize=auto;html=1;exitX=1;exitY=0.5;exitDx=0;exitDy=0;entryX=0;entryY=0.5;entryDx=0;entryDy=0;endArrow=none;endFill=0;" parent="1" source="_R_d_fyW46zc55ehOHIV-126" target="_R_d_fyW46zc55ehOHIV-60" edge="1">
          <mxGeometry relative="1" as="geometry" />
        </mxCell>
        <mxCell id="_R_d_fyW46zc55ehOHIV-129" style="edgeStyle=orthogonalEdgeStyle;rounded=0;orthogonalLoop=1;jettySize=auto;html=1;exitX=0;exitY=0.5;exitDx=0;exitDy=0;entryX=0.5;entryY=1;entryDx=0;entryDy=0;endArrow=none;endFill=0;" parent="1" source="_R_d_fyW46zc55ehOHIV-126" target="_R_d_fyW46zc55ehOHIV-1" edge="1">
          <mxGeometry relative="1" as="geometry">
            <Array as="points">
              <mxPoint x="-1750" y="-520" />
            </Array>
          </mxGeometry>
        </mxCell>
        <mxCell id="_R_d_fyW46zc55ehOHIV-126" value="" style="rhombus;whiteSpace=wrap;html=1;" parent="1" vertex="1">
          <mxGeometry x="-1740" y="-545" width="120" height="50" as="geometry" />
        </mxCell>
        <mxCell id="_R_d_fyW46zc55ehOHIV-127" value="hat" style="text;html=1;strokeColor=none;fillColor=none;align=center;verticalAlign=middle;whiteSpace=wrap;rounded=0;" parent="1" vertex="1">
          <mxGeometry x="-1701" y="-530" width="40" height="20" as="geometry" />
        </mxCell>
        <mxCell id="_R_d_fyW46zc55ehOHIV-131" value="1" style="text;html=1;strokeColor=none;fillColor=none;align=center;verticalAlign=middle;whiteSpace=wrap;rounded=0;" parent="1" vertex="1">
          <mxGeometry x="-1750" y="-650" width="40" height="20" as="geometry" />
        </mxCell>
        <mxCell id="_R_d_fyW46zc55ehOHIV-132" value="1" style="text;html=1;strokeColor=none;fillColor=none;align=center;verticalAlign=middle;whiteSpace=wrap;rounded=0;" parent="1" vertex="1">
          <mxGeometry x="-1699" y="-600" width="40" height="20" as="geometry" />
        </mxCell>
        <mxCell id="_R_d_fyW46zc55ehOHIV-133" value="N" style="text;html=1;strokeColor=none;fillColor=none;align=center;verticalAlign=middle;whiteSpace=wrap;rounded=0;" parent="1" vertex="1">
          <mxGeometry x="-1760" y="-570" width="40" height="20" as="geometry" />
        </mxCell>
        <mxCell id="_R_d_fyW46zc55ehOHIV-135" value="N" style="text;html=1;strokeColor=none;fillColor=none;align=center;verticalAlign=middle;whiteSpace=wrap;rounded=0;" parent="1" vertex="1">
          <mxGeometry x="-1810" y="-568" width="40" height="20" as="geometry" />
        </mxCell>
        <mxCell id="_R_d_fyW46zc55ehOHIV-137" value="N" style="text;html=1;strokeColor=none;fillColor=none;align=center;verticalAlign=middle;whiteSpace=wrap;rounded=0;" parent="1" vertex="1">
          <mxGeometry x="-1840" y="-603" width="40" height="20" as="geometry" />
        </mxCell>
        <mxCell id="_R_d_fyW46zc55ehOHIV-138" value="1" style="text;html=1;strokeColor=none;fillColor=none;align=center;verticalAlign=middle;whiteSpace=wrap;rounded=0;" parent="1" vertex="1">
          <mxGeometry x="-1811" y="-650" width="40" height="20" as="geometry" />
        </mxCell>
        <mxCell id="_R_d_fyW46zc55ehOHIV-141" value="N" style="text;html=1;strokeColor=none;fillColor=none;align=center;verticalAlign=middle;whiteSpace=wrap;rounded=0;" parent="1" vertex="1">
          <mxGeometry x="-1880" y="-645" width="40" height="20" as="geometry" />
        </mxCell>
        <mxCell id="_R_d_fyW46zc55ehOHIV-215" style="edgeStyle=orthogonalEdgeStyle;rounded=0;orthogonalLoop=1;jettySize=auto;html=1;exitX=0;exitY=0.75;exitDx=0;exitDy=0;endArrow=none;endFill=0;entryX=0;entryY=0.5;entryDx=0;entryDy=0;" parent="1" source="_R_d_fyW46zc55ehOHIV-151" target="_R_d_fyW46zc55ehOHIV-216" edge="1">
          <mxGeometry relative="1" as="geometry">
            <mxPoint x="-1680" y="500" as="targetPoint" />
            <Array as="points">
              <mxPoint x="-1750" y="245" />
              <mxPoint x="-1750" y="535" />
            </Array>
          </mxGeometry>
        </mxCell>
        <mxCell id="_R_d_fyW46zc55ehOHIV-151" value="" style="rounded=0;whiteSpace=wrap;html=1;" parent="1" vertex="1">
          <mxGeometry x="-1732.9999999999995" y="199" width="120" height="60" as="geometry" />
        </mxCell>
        <mxCell id="_R_d_fyW46zc55ehOHIV-152" value="Mitarbeiter" style="text;html=1;strokeColor=none;fillColor=none;align=center;verticalAlign=middle;whiteSpace=wrap;rounded=0;" parent="1" vertex="1">
          <mxGeometry x="-1689.9999999999995" y="220" width="40" height="20" as="geometry" />
        </mxCell>
        <mxCell id="_R_d_fyW46zc55ehOHIV-156" style="edgeStyle=orthogonalEdgeStyle;rounded=0;orthogonalLoop=1;jettySize=auto;html=1;exitX=0.25;exitY=0;exitDx=0;exitDy=0;entryX=1;entryY=0.5;entryDx=0;entryDy=0;endArrow=none;endFill=0;" parent="1" source="_R_d_fyW46zc55ehOHIV-157" target="_R_d_fyW46zc55ehOHIV-173" edge="1">
          <mxGeometry relative="1" as="geometry" />
        </mxCell>
        <mxCell id="_R_d_fyW46zc55ehOHIV-157" value="" style="rounded=0;whiteSpace=wrap;html=1;" parent="1" vertex="1">
          <mxGeometry x="-1157" y="279" width="120" height="60" as="geometry" />
        </mxCell>
        <mxCell id="_R_d_fyW46zc55ehOHIV-158" value="Asset" style="text;html=1;strokeColor=none;fillColor=none;align=center;verticalAlign=middle;whiteSpace=wrap;rounded=0;" parent="1" vertex="1">
          <mxGeometry x="-1116" y="299" width="40" height="20" as="geometry" />
        </mxCell>
        <mxCell id="_R_d_fyW46zc55ehOHIV-167" value="N" style="text;html=1;strokeColor=none;fillColor=none;align=center;verticalAlign=middle;whiteSpace=wrap;rounded=0;" parent="1" vertex="1">
          <mxGeometry x="-1188" y="291" width="40" height="20" as="geometry" />
        </mxCell>
        <mxCell id="_R_d_fyW46zc55ehOHIV-170" value="N" style="text;html=1;strokeColor=none;fillColor=none;align=center;verticalAlign=middle;whiteSpace=wrap;rounded=0;" parent="1" vertex="1">
          <mxGeometry x="-1619" y="230" width="40" height="20" as="geometry" />
        </mxCell>
        <mxCell id="_R_d_fyW46zc55ehOHIV-225" style="edgeStyle=orthogonalEdgeStyle;rounded=0;orthogonalLoop=1;jettySize=auto;html=1;exitX=0;exitY=0.5;exitDx=0;exitDy=0;entryX=1;entryY=0.5;entryDx=0;entryDy=0;endArrow=none;endFill=0;" parent="1" source="_R_d_fyW46zc55ehOHIV-173" target="_R_d_fyW46zc55ehOHIV-151" edge="1">
          <mxGeometry relative="1" as="geometry" />
        </mxCell>
        <mxCell id="_R_d_fyW46zc55ehOHIV-173" value="" style="rhombus;whiteSpace=wrap;html=1;" parent="1" vertex="1">
          <mxGeometry x="-1433" y="204" width="120" height="50" as="geometry" />
        </mxCell>
        <mxCell id="_R_d_fyW46zc55ehOHIV-174" value="nutzt" style="text;html=1;strokeColor=none;fillColor=none;align=center;verticalAlign=middle;whiteSpace=wrap;rounded=0;" parent="1" vertex="1">
          <mxGeometry x="-1394" y="219" width="39" height="20" as="geometry" />
        </mxCell>
        <mxCell id="_R_d_fyW46zc55ehOHIV-175" style="edgeStyle=orthogonalEdgeStyle;rounded=0;orthogonalLoop=1;jettySize=auto;html=1;exitX=0.5;exitY=1;exitDx=0;exitDy=0;entryX=0.5;entryY=0;entryDx=0;entryDy=0;endArrow=none;endFill=0;" parent="1" source="_R_d_fyW46zc55ehOHIV-178" target="_R_d_fyW46zc55ehOHIV-183" edge="1">
          <mxGeometry relative="1" as="geometry" />
        </mxCell>
        <mxCell id="_R_d_fyW46zc55ehOHIV-176" style="edgeStyle=orthogonalEdgeStyle;rounded=0;orthogonalLoop=1;jettySize=auto;html=1;exitX=0.25;exitY=1;exitDx=0;exitDy=0;entryX=0;entryY=0;entryDx=0;entryDy=0;endArrow=none;endFill=0;" parent="1" source="_R_d_fyW46zc55ehOHIV-178" target="_R_d_fyW46zc55ehOHIV-185" edge="1">
          <mxGeometry relative="1" as="geometry" />
        </mxCell>
        <mxCell id="_R_d_fyW46zc55ehOHIV-177" style="edgeStyle=orthogonalEdgeStyle;rounded=0;orthogonalLoop=1;jettySize=auto;html=1;exitX=1;exitY=0.5;exitDx=0;exitDy=0;entryX=0;entryY=0.5;entryDx=0;entryDy=0;endArrow=none;endFill=0;" parent="1" source="_R_d_fyW46zc55ehOHIV-178" target="_R_d_fyW46zc55ehOHIV-181" edge="1">
          <mxGeometry relative="1" as="geometry" />
        </mxCell>
        <mxCell id="_R_d_fyW46zc55ehOHIV-178" value="" style="rounded=0;whiteSpace=wrap;html=1;" parent="1" vertex="1">
          <mxGeometry x="-1513" y="279" width="120" height="60" as="geometry" />
        </mxCell>
        <mxCell id="_R_d_fyW46zc55ehOHIV-179" value="Abteilung" style="text;html=1;strokeColor=none;fillColor=none;align=center;verticalAlign=middle;whiteSpace=wrap;rounded=0;" parent="1" vertex="1">
          <mxGeometry x="-1473" y="299" width="40" height="20" as="geometry" />
        </mxCell>
        <mxCell id="_R_d_fyW46zc55ehOHIV-180" style="edgeStyle=orthogonalEdgeStyle;rounded=0;orthogonalLoop=1;jettySize=auto;html=1;exitX=1;exitY=0.5;exitDx=0;exitDy=0;endArrow=none;endFill=0;" parent="1" source="_R_d_fyW46zc55ehOHIV-181" target="_R_d_fyW46zc55ehOHIV-157" edge="1">
          <mxGeometry relative="1" as="geometry" />
        </mxCell>
        <mxCell id="_R_d_fyW46zc55ehOHIV-181" value="" style="rhombus;whiteSpace=wrap;html=1;" parent="1" vertex="1">
          <mxGeometry x="-1322" y="284" width="120" height="50" as="geometry" />
        </mxCell>
        <mxCell id="_R_d_fyW46zc55ehOHIV-182" value="fÃ¼r" style="text;html=1;strokeColor=none;fillColor=none;align=center;verticalAlign=middle;whiteSpace=wrap;rounded=0;" parent="1" vertex="1">
          <mxGeometry x="-1283" y="299" width="40" height="20" as="geometry" />
        </mxCell>
        <mxCell id="_R_d_fyW46zc55ehOHIV-183" value="" style="ellipse;whiteSpace=wrap;html=1;" parent="1" vertex="1">
          <mxGeometry x="-1442" y="369" width="120" height="50" as="geometry" />
        </mxCell>
        <mxCell id="_R_d_fyW46zc55ehOHIV-184" value="Bezeichnung" style="text;html=1;strokeColor=none;fillColor=none;align=center;verticalAlign=middle;whiteSpace=wrap;rounded=0;" parent="1" vertex="1">
          <mxGeometry x="-1402" y="384" width="40" height="20" as="geometry" />
        </mxCell>
        <mxCell id="_R_d_fyW46zc55ehOHIV-185" value="" style="ellipse;whiteSpace=wrap;html=1;" parent="1" vertex="1">
          <mxGeometry x="-1500" y="424" width="120" height="50" as="geometry" />
        </mxCell>
        <mxCell id="_R_d_fyW46zc55ehOHIV-186" value="Abteilungs_ID" style="text;html=1;strokeColor=none;fillColor=none;align=center;verticalAlign=middle;whiteSpace=wrap;rounded=0;" parent="1" vertex="1">
          <mxGeometry x="-1460" y="439" width="40" height="20" as="geometry" />
        </mxCell>
        <mxCell id="_R_d_fyW46zc55ehOHIV-187" value="1" style="text;html=1;strokeColor=none;fillColor=none;align=center;verticalAlign=middle;whiteSpace=wrap;rounded=0;" parent="1" vertex="1">
          <mxGeometry x="-1402" y="287" width="40" height="20" as="geometry" />
        </mxCell>
        <mxCell id="_R_d_fyW46zc55ehOHIV-188" style="edgeStyle=orthogonalEdgeStyle;rounded=0;orthogonalLoop=1;jettySize=auto;html=1;exitX=0;exitY=0.5;exitDx=0;exitDy=0;entryX=1;entryY=0.5;entryDx=0;entryDy=0;endArrow=none;endFill=0;" parent="1" source="_R_d_fyW46zc55ehOHIV-189" target="_R_d_fyW46zc55ehOHIV-191" edge="1">
          <mxGeometry relative="1" as="geometry" />
        </mxCell>
        <mxCell id="_R_d_fyW46zc55ehOHIV-211" style="edgeStyle=orthogonalEdgeStyle;rounded=0;orthogonalLoop=1;jettySize=auto;html=1;exitX=1;exitY=0.5;exitDx=0;exitDy=0;entryX=0;entryY=0.5;entryDx=0;entryDy=0;endArrow=none;endFill=0;" parent="1" source="_R_d_fyW46zc55ehOHIV-189" target="_R_d_fyW46zc55ehOHIV-209" edge="1">
          <mxGeometry relative="1" as="geometry" />
        </mxCell>
        <mxCell id="_R_d_fyW46zc55ehOHIV-189" value="" style="rounded=0;whiteSpace=wrap;html=1;" parent="1" vertex="1">
          <mxGeometry x="-1429" y="50" width="120" height="60" as="geometry" />
        </mxCell>
        <mxCell id="_R_d_fyW46zc55ehOHIV-190" value="Verwaltung" style="text;html=1;strokeColor=none;fillColor=none;align=center;verticalAlign=middle;whiteSpace=wrap;rounded=0;" parent="1" vertex="1">
          <mxGeometry x="-1389" y="70" width="40" height="20" as="geometry" />
        </mxCell>
        <mxCell id="_R_d_fyW46zc55ehOHIV-202" style="edgeStyle=orthogonalEdgeStyle;rounded=0;orthogonalLoop=1;jettySize=auto;html=1;exitX=0;exitY=0.5;exitDx=0;exitDy=0;entryX=0.5;entryY=0;entryDx=0;entryDy=0;endArrow=none;endFill=0;" parent="1" source="_R_d_fyW46zc55ehOHIV-191" target="_R_d_fyW46zc55ehOHIV-151" edge="1">
          <mxGeometry relative="1" as="geometry" />
        </mxCell>
        <mxCell id="_R_d_fyW46zc55ehOHIV-191" value="" style="rhombus;whiteSpace=wrap;html=1;" parent="1" vertex="1">
          <mxGeometry x="-1610" y="55" width="120" height="50" as="geometry" />
        </mxCell>
        <mxCell id="_R_d_fyW46zc55ehOHIV-192" value="informiert" style="text;html=1;strokeColor=none;fillColor=none;align=center;verticalAlign=middle;whiteSpace=wrap;rounded=0;" parent="1" vertex="1">
          <mxGeometry x="-1571" y="70" width="40" height="20" as="geometry" />
        </mxCell>
        <mxCell id="_R_d_fyW46zc55ehOHIV-193" value="1" style="text;html=1;strokeColor=none;fillColor=none;align=center;verticalAlign=middle;whiteSpace=wrap;rounded=0;" parent="1" vertex="1">
          <mxGeometry x="-1458" y="61" width="40" height="20" as="geometry" />
        </mxCell>
        <mxCell id="_R_d_fyW46zc55ehOHIV-194" style="edgeStyle=orthogonalEdgeStyle;rounded=0;orthogonalLoop=1;jettySize=auto;html=1;exitX=1;exitY=0.5;exitDx=0;exitDy=0;entryX=0;entryY=0.5;entryDx=0;entryDy=0;endArrow=none;endFill=0;" parent="1" target="_R_d_fyW46zc55ehOHIV-178" edge="1">
          <mxGeometry relative="1" as="geometry">
            <mxPoint x="-1533.0000000000005" y="309" as="sourcePoint" />
          </mxGeometry>
        </mxCell>
        <mxCell id="_R_d_fyW46zc55ehOHIV-200" style="edgeStyle=orthogonalEdgeStyle;rounded=0;orthogonalLoop=1;jettySize=auto;html=1;exitX=0;exitY=0.5;exitDx=0;exitDy=0;entryX=0.5;entryY=1;entryDx=0;entryDy=0;endArrow=none;endFill=0;" parent="1" source="_R_d_fyW46zc55ehOHIV-198" target="_R_d_fyW46zc55ehOHIV-151" edge="1">
          <mxGeometry relative="1" as="geometry">
            <Array as="points">
              <mxPoint x="-1670" y="309" />
            </Array>
          </mxGeometry>
        </mxCell>
        <mxCell id="_R_d_fyW46zc55ehOHIV-198" value="" style="rhombus;whiteSpace=wrap;html=1;" parent="1" vertex="1">
          <mxGeometry x="-1651.9999999999995" y="284" width="120" height="50" as="geometry" />
        </mxCell>
        <mxCell id="_R_d_fyW46zc55ehOHIV-199" value="hat" style="text;html=1;strokeColor=none;fillColor=none;align=center;verticalAlign=middle;whiteSpace=wrap;rounded=0;" parent="1" vertex="1">
          <mxGeometry x="-1612.9999999999995" y="299" width="40" height="20" as="geometry" />
        </mxCell>
        <mxCell id="_R_d_fyW46zc55ehOHIV-212" style="edgeStyle=orthogonalEdgeStyle;rounded=0;orthogonalLoop=1;jettySize=auto;html=1;exitX=1;exitY=0.5;exitDx=0;exitDy=0;endArrow=none;endFill=0;entryX=0.5;entryY=0;entryDx=0;entryDy=0;startArrow=none;" parent="1" source="_R_d_fyW46zc55ehOHIV-209" target="_R_d_fyW46zc55ehOHIV-157" edge="1">
          <mxGeometry relative="1" as="geometry">
            <mxPoint x="-1030" y="260" as="targetPoint" />
            <Array as="points">
              <mxPoint x="-1097" y="80" />
            </Array>
          </mxGeometry>
        </mxCell>
        <mxCell id="_R_d_fyW46zc55ehOHIV-209" value="" style="rhombus;whiteSpace=wrap;html=1;" parent="1" vertex="1">
          <mxGeometry x="-1234.9999999999995" y="55" width="120" height="50" as="geometry" />
        </mxCell>
        <mxCell id="_R_d_fyW46zc55ehOHIV-210" value="genehmigt" style="text;html=1;strokeColor=none;fillColor=none;align=center;verticalAlign=middle;whiteSpace=wrap;rounded=0;" parent="1" vertex="1">
          <mxGeometry x="-1195.9999999999995" y="70" width="40" height="20" as="geometry" />
        </mxCell>
        <mxCell id="_R_d_fyW46zc55ehOHIV-213" value="" style="rounded=0;whiteSpace=wrap;html=1;" parent="1" vertex="1">
          <mxGeometry x="-1156.9999999999995" y="505" width="120" height="60" as="geometry" />
        </mxCell>
        <mxCell id="_R_d_fyW46zc55ehOHIV-214" value="Bestellliste" style="text;html=1;strokeColor=none;fillColor=none;align=center;verticalAlign=middle;whiteSpace=wrap;rounded=0;" parent="1" vertex="1">
          <mxGeometry x="-1114.9999999999995" y="525" width="40" height="20" as="geometry" />
        </mxCell>
        <mxCell id="_R_d_fyW46zc55ehOHIV-218" style="edgeStyle=orthogonalEdgeStyle;rounded=0;orthogonalLoop=1;jettySize=auto;html=1;exitX=1;exitY=0.5;exitDx=0;exitDy=0;entryX=0;entryY=0.5;entryDx=0;entryDy=0;endArrow=none;endFill=0;" parent="1" source="_R_d_fyW46zc55ehOHIV-216" target="_R_d_fyW46zc55ehOHIV-213" edge="1">
          <mxGeometry relative="1" as="geometry" />
        </mxCell>
        <mxCell id="_R_d_fyW46zc55ehOHIV-216" value="" style="rhombus;whiteSpace=wrap;html=1;" parent="1" vertex="1">
          <mxGeometry x="-1582.9999999999995" y="510" width="120" height="50" as="geometry" />
        </mxCell>
        <mxCell id="_R_d_fyW46zc55ehOHIV-217" value="erstellt" style="text;html=1;strokeColor=none;fillColor=none;align=center;verticalAlign=middle;whiteSpace=wrap;rounded=0;" parent="1" vertex="1">
          <mxGeometry x="-1543.9999999999995" y="525" width="40" height="20" as="geometry" />
        </mxCell>
        <mxCell id="_R_d_fyW46zc55ehOHIV-222" style="edgeStyle=orthogonalEdgeStyle;rounded=0;orthogonalLoop=1;jettySize=auto;html=1;exitX=0.5;exitY=0;exitDx=0;exitDy=0;entryX=0.5;entryY=1;entryDx=0;entryDy=0;endArrow=none;endFill=0;" parent="1" source="_R_d_fyW46zc55ehOHIV-219" target="_R_d_fyW46zc55ehOHIV-157" edge="1">
          <mxGeometry relative="1" as="geometry" />
        </mxCell>
        <mxCell id="_R_d_fyW46zc55ehOHIV-223" style="edgeStyle=orthogonalEdgeStyle;rounded=0;orthogonalLoop=1;jettySize=auto;html=1;exitX=0.5;exitY=1;exitDx=0;exitDy=0;entryX=0.5;entryY=0;entryDx=0;entryDy=0;endArrow=none;endFill=0;" parent="1" source="_R_d_fyW46zc55ehOHIV-219" target="_R_d_fyW46zc55ehOHIV-213" edge="1">
          <mxGeometry relative="1" as="geometry" />
        </mxCell>
        <mxCell id="_R_d_fyW46zc55ehOHIV-219" value="" style="rhombus;whiteSpace=wrap;html=1;" parent="1" vertex="1">
          <mxGeometry x="-1156.9999999999995" y="389" width="120" height="50" as="geometry" />
        </mxCell>
        <mxCell id="_R_d_fyW46zc55ehOHIV-220" value="enthÃ¤lt" style="text;html=1;strokeColor=none;fillColor=none;align=center;verticalAlign=middle;whiteSpace=wrap;rounded=0;" parent="1" vertex="1">
          <mxGeometry x="-1116.9999999999995" y="404" width="40" height="20" as="geometry" />
        </mxCell>
        <mxCell id="_R_d_fyW46zc55ehOHIV-226" value="1" style="text;html=1;strokeColor=none;fillColor=none;align=center;verticalAlign=middle;whiteSpace=wrap;rounded=0;" parent="1" vertex="1">
          <mxGeometry x="-1162" y="254" width="40" height="20" as="geometry" />
        </mxCell>
        <mxCell id="_R_d_fyW46zc55ehOHIV-227" value="" style="ellipse;whiteSpace=wrap;html=1;" parent="1" vertex="1">
          <mxGeometry x="-1810.9999999999995" y="110" width="120" height="50" as="geometry" />
        </mxCell>
        <mxCell id="_R_d_fyW46zc55ehOHIV-228" value="&lt;div&gt;Mitarbeiter_ID&lt;/div&gt;" style="text;html=1;strokeColor=none;fillColor=none;align=center;verticalAlign=middle;whiteSpace=wrap;rounded=0;" parent="1" vertex="1">
          <mxGeometry x="-1770.9999999999995" y="125" width="40" height="20" as="geometry" />
        </mxCell>
        <mxCell id="_R_d_fyW46zc55ehOHIV-231" value="" style="ellipse;whiteSpace=wrap;html=1;" parent="1" vertex="1">
          <mxGeometry x="-999.9999999999995" y="244" width="120" height="50" as="geometry" />
        </mxCell>
        <mxCell id="_R_d_fyW46zc55ehOHIV-232" value="Asset_ID" style="text;html=1;strokeColor=none;fillColor=none;align=center;verticalAlign=middle;whiteSpace=wrap;rounded=0;" parent="1" vertex="1">
          <mxGeometry x="-959.9999999999995" y="259" width="40" height="20" as="geometry" />
        </mxCell>
        <mxCell id="_R_d_fyW46zc55ehOHIV-233" value="" style="ellipse;whiteSpace=wrap;html=1;" parent="1" vertex="1">
          <mxGeometry x="-1039.9999999999995" y="580" width="120" height="50" as="geometry" />
        </mxCell>
        <mxCell id="_R_d_fyW46zc55ehOHIV-234" value="Bestellliste_ID" style="text;html=1;strokeColor=none;fillColor=none;align=center;verticalAlign=middle;whiteSpace=wrap;rounded=0;" parent="1" vertex="1">
          <mxGeometry x="-993.9999999999995" y="590" width="40" height="20" as="geometry" />
        </mxCell>
        <mxCell id="4nArfHA0KIjbY4lrzI_A-1" value="Schaden_ID" style="ellipse;whiteSpace=wrap;html=1;" vertex="1" parent="1">
          <mxGeometry x="-1105" y="-910" width="95" height="70" as="geometry" />
        </mxCell>
        <mxCell id="4nArfHA0KIjbY4lrzI_A-2" value="Lager_ID" style="ellipse;whiteSpace=wrap;html=1;" vertex="1" parent="1">
          <mxGeometry x="-750" y="-592" width="95" height="70" as="geometry" />
        </mxCell>
        <mxCell id="4nArfHA0KIjbY4lrzI_A-3" value="Listen_ID" style="ellipse;whiteSpace=wrap;html=1;" vertex="1" parent="1">
          <mxGeometry x="-1180" y="-140" width="95" height="70" as="geometry" />
        </mxCell>
        <mxCell id="4nArfHA0KIjbY4lrzI_A-4" value="MItarbeiter_ID" style="ellipse;whiteSpace=wrap;html=1;" vertex="1" parent="1">
          <mxGeometry x="-1980" y="-680" width="95" height="70" as="geometry" />
        </mxCell>
        <mxCell id="4nArfHA0KIjbY4lrzI_A-5" value="Bezeichnung" style="ellipse;whiteSpace=wrap;html=1;" vertex="1" parent="1">
          <mxGeometry x="-1089" y="-820" width="95" height="70" as="geometry" />
        </mxCell>
        <mxCell id="4nArfHA0KIjbY4lrzI_A-6" value="Finanz_ID" style="ellipse;whiteSpace=wrap;html=1;" vertex="1" parent="1">
          <mxGeometry x="-1500" y="-847" width="95" height="70" as="geometry" />
        </mxCell>
        <mxCell id="4nArfHA0KIjbY4lrzI_A-7" value="Summe" style="ellipse;whiteSpace=wrap;html=1;" vertex="1" parent="1">
          <mxGeometry x="-1384" y="-850" width="95" height="70" as="geometry" />
        </mxCell>
        <mxCell id="4nArfHA0KIjbY4lrzI_A-8" value="Name" style="ellipse;whiteSpace=wrap;html=1;" vertex="1" parent="1">
          <mxGeometry x="-2075" y="-553" width="95" height="70" as="geometry" />
        </mxCell>
        <mxCell id="4nArfHA0KIjbY4lrzI_A-9" value="Job" style="ellipse;whiteSpace=wrap;html=1;" vertex="1" parent="1">
          <mxGeometry x="-2086" y="-630" width="95" height="70" as="geometry" />
        </mxCell>
        <mxCell id="4nArfHA0KIjbY4lrzI_A-10" value="genehmigungs_ID" style="ellipse;whiteSpace=wrap;html=1;" vertex="1" parent="1">
          <mxGeometry x="-1429" y="-50" width="119" height="70" as="geometry" />
        </mxCell>
        <mxCell id="4nArfHA0KIjbY4lrzI_A-11" value="Datum" style="ellipse;whiteSpace=wrap;html=1;" vertex="1" parent="1">
          <mxGeometry x="-740" y="-495" width="95" height="70" as="geometry" />
        </mxCell>
        <mxCell id="4nArfHA0KIjbY4lrzI_A-12" value="Packet_ID" style="ellipse;whiteSpace=wrap;html=1;" vertex="1" parent="1">
          <mxGeometry x="-1169" y="-650" width="95" height="70" as="geometry" />
        </mxCell>
        <mxCell id="4nArfHA0KIjbY4lrzI_A-13" value="Bezeichnung" style="ellipse;whiteSpace=wrap;html=1;" vertex="1" parent="1">
          <mxGeometry x="-1074" y="-625" width="95" height="70" as="geometry" />
        </mxCell>
        <mxCell id="4nArfHA0KIjbY4lrzI_A-14" value="Preis" style="ellipse;whiteSpace=wrap;html=1;" vertex="1" parent="1">
          <mxGeometry x="-1105" y="-495" width="95" height="70" as="geometry" />
        </mxCell>
        <mxCell id="4nArfHA0KIjbY4lrzI_A-15" value="" style="endArrow=none;html=1;exitX=1;exitY=1;exitDx=0;exitDy=0;" edge="1" parent="1" source="_R_d_fyW46zc55ehOHIV-5" target="4nArfHA0KIjbY4lrzI_A-14">
          <mxGeometry width="50" height="50" relative="1" as="geometry">
            <mxPoint x="-1100" y="-330" as="sourcePoint" />
            <mxPoint x="-1050" y="-380" as="targetPoint" />
            <Array as="points">
              <mxPoint x="-1098" y="-479" />
            </Array>
          </mxGeometry>
        </mxCell>
        <mxCell id="4nArfHA0KIjbY4lrzI_A-18" value="" style="endArrow=none;html=1;exitX=0.75;exitY=0;exitDx=0;exitDy=0;" edge="1" parent="1" source="_R_d_fyW46zc55ehOHIV-5" target="4nArfHA0KIjbY4lrzI_A-12">
          <mxGeometry width="50" height="50" relative="1" as="geometry">
            <mxPoint x="-1350" y="-410" as="sourcePoint" />
            <mxPoint x="-1300" y="-460" as="targetPoint" />
          </mxGeometry>
        </mxCell>
        <mxCell id="4nArfHA0KIjbY4lrzI_A-19" value="" style="endArrow=none;html=1;entryX=0;entryY=1;entryDx=0;entryDy=0;exitX=0.25;exitY=0;exitDx=0;exitDy=0;" edge="1" parent="1" source="_R_d_fyW46zc55ehOHIV-47" target="4nArfHA0KIjbY4lrzI_A-13">
          <mxGeometry width="50" height="50" relative="1" as="geometry">
            <mxPoint x="-1120" y="-530" as="sourcePoint" />
            <mxPoint x="-1300" y="-460" as="targetPoint" />
          </mxGeometry>
        </mxCell>
        <mxCell id="4nArfHA0KIjbY4lrzI_A-20" value="" style="endArrow=none;html=1;entryX=1.025;entryY=0.9;entryDx=0;entryDy=0;entryPerimeter=0;" edge="1" parent="1" source="4nArfHA0KIjbY4lrzI_A-5" target="_R_d_fyW46zc55ehOHIV-22">
          <mxGeometry width="50" height="50" relative="1" as="geometry">
            <mxPoint x="-1080" y="-710" as="sourcePoint" />
            <mxPoint x="-1030" y="-760" as="targetPoint" />
          </mxGeometry>
        </mxCell>
        <mxCell id="4nArfHA0KIjbY4lrzI_A-21" value="" style="endArrow=none;html=1;entryX=0.032;entryY=0.629;entryDx=0;entryDy=0;entryPerimeter=0;" edge="1" parent="1" source="_R_d_fyW46zc55ehOHIV-22" target="4nArfHA0KIjbY4lrzI_A-1">
          <mxGeometry width="50" height="50" relative="1" as="geometry">
            <mxPoint x="-1080" y="-710" as="sourcePoint" />
            <mxPoint x="-1030" y="-760" as="targetPoint" />
          </mxGeometry>
        </mxCell>
        <mxCell id="4nArfHA0KIjbY4lrzI_A-22" value="" style="endArrow=none;html=1;entryX=0.5;entryY=1;entryDx=0;entryDy=0;exitX=0.75;exitY=0;exitDx=0;exitDy=0;" edge="1" parent="1" source="_R_d_fyW46zc55ehOHIV-85" target="4nArfHA0KIjbY4lrzI_A-7">
          <mxGeometry width="50" height="50" relative="1" as="geometry">
            <mxPoint x="-1370" y="-520" as="sourcePoint" />
            <mxPoint x="-1320" y="-570" as="targetPoint" />
          </mxGeometry>
        </mxCell>
        <mxCell id="4nArfHA0KIjbY4lrzI_A-23" value="" style="endArrow=none;html=1;" edge="1" parent="1" source="_R_d_fyW46zc55ehOHIV-85" target="4nArfHA0KIjbY4lrzI_A-6">
          <mxGeometry width="50" height="50" relative="1" as="geometry">
            <mxPoint x="-1370" y="-520" as="sourcePoint" />
            <mxPoint x="-1320" y="-570" as="targetPoint" />
          </mxGeometry>
        </mxCell>
        <mxCell id="4nArfHA0KIjbY4lrzI_A-24" value="" style="endArrow=none;html=1;exitX=0.75;exitY=0;exitDx=0;exitDy=0;" edge="1" parent="1" source="_R_d_fyW46zc55ehOHIV-137" target="4nArfHA0KIjbY4lrzI_A-4">
          <mxGeometry width="50" height="50" relative="1" as="geometry">
            <mxPoint x="-1660" y="-550" as="sourcePoint" />
            <mxPoint x="-1610" y="-600" as="targetPoint" />
          </mxGeometry>
        </mxCell>
        <mxCell id="4nArfHA0KIjbY4lrzI_A-25" value="" style="endArrow=none;html=1;" edge="1" parent="1" source="4nArfHA0KIjbY4lrzI_A-9">
          <mxGeometry width="50" height="50" relative="1" as="geometry">
            <mxPoint x="-1660" y="-550" as="sourcePoint" />
            <mxPoint x="-1810" y="-600" as="targetPoint" />
          </mxGeometry>
        </mxCell>
        <mxCell id="4nArfHA0KIjbY4lrzI_A-26" value="" style="endArrow=none;html=1;exitX=1;exitY=0;exitDx=0;exitDy=0;entryX=0.75;entryY=0;entryDx=0;entryDy=0;" edge="1" parent="1" source="4nArfHA0KIjbY4lrzI_A-8" target="_R_d_fyW46zc55ehOHIV-137">
          <mxGeometry width="50" height="50" relative="1" as="geometry">
            <mxPoint x="-1660" y="-550" as="sourcePoint" />
            <mxPoint x="-1610" y="-600" as="targetPoint" />
          </mxGeometry>
        </mxCell>
        <mxCell id="4nArfHA0KIjbY4lrzI_A-27" value="" style="endArrow=none;html=1;exitX=1;exitY=0.25;exitDx=0;exitDy=0;" edge="1" parent="1" source="_R_d_fyW46zc55ehOHIV-98" target="4nArfHA0KIjbY4lrzI_A-2">
          <mxGeometry width="50" height="50" relative="1" as="geometry">
            <mxPoint x="-600" y="-450" as="sourcePoint" />
            <mxPoint x="-550" y="-500" as="targetPoint" />
          </mxGeometry>
        </mxCell>
        <mxCell id="4nArfHA0KIjbY4lrzI_A-28" value="" style="endArrow=none;html=1;exitX=1;exitY=1;exitDx=0;exitDy=0;" edge="1" parent="1" source="_R_d_fyW46zc55ehOHIV-98" target="4nArfHA0KIjbY4lrzI_A-11">
          <mxGeometry width="50" height="50" relative="1" as="geometry">
            <mxPoint x="-600" y="-450" as="sourcePoint" />
            <mxPoint x="-550" y="-500" as="targetPoint" />
          </mxGeometry>
        </mxCell>
        <mxCell id="4nArfHA0KIjbY4lrzI_A-29" value="" style="endArrow=none;html=1;entryX=0.5;entryY=1;entryDx=0;entryDy=0;exitX=0;exitY=0;exitDx=0;exitDy=0;" edge="1" parent="1" source="4nArfHA0KIjbY4lrzI_A-3" target="_R_d_fyW46zc55ehOHIV-8">
          <mxGeometry width="50" height="50" relative="1" as="geometry">
            <mxPoint x="-900" y="-170" as="sourcePoint" />
            <mxPoint x="-850" y="-220" as="targetPoint" />
          </mxGeometry>
        </mxCell>
        <mxCell id="4nArfHA0KIjbY4lrzI_A-30" value="Name" style="ellipse;whiteSpace=wrap;html=1;" vertex="1" parent="1">
          <mxGeometry x="-1907.5" y="130" width="95" height="70" as="geometry" />
        </mxCell>
        <mxCell id="4nArfHA0KIjbY4lrzI_A-31" value="Kategorie" style="ellipse;whiteSpace=wrap;html=1;" vertex="1" parent="1">
          <mxGeometry x="-1089" y="180" width="95" height="70" as="geometry" />
        </mxCell>
        <mxCell id="4nArfHA0KIjbY4lrzI_A-32" value="Titel" style="ellipse;whiteSpace=wrap;html=1;" vertex="1" parent="1">
          <mxGeometry x="-985" y="299" width="95" height="70" as="geometry" />
        </mxCell>
        <mxCell id="4nArfHA0KIjbY4lrzI_A-33" value="Job" style="ellipse;whiteSpace=wrap;html=1;" vertex="1" parent="1">
          <mxGeometry x="-1890" y="209" width="95" height="70" as="geometry" />
        </mxCell>
        <mxCell id="4nArfHA0KIjbY4lrzI_A-34" value="LizensschlÃ¼ssel" style="ellipse;whiteSpace=wrap;html=1;" vertex="1" parent="1">
          <mxGeometry x="-1000" y="379" width="95" height="70" as="geometry" />
        </mxCell>
        <mxCell id="4nArfHA0KIjbY4lrzI_A-35" value="Summe" style="ellipse;whiteSpace=wrap;html=1;" vertex="1" parent="1">
          <mxGeometry x="-1163" y="600" width="95" height="70" as="geometry" />
        </mxCell>
        <mxCell id="4nArfHA0KIjbY4lrzI_A-36" value="Datum" style="ellipse;whiteSpace=wrap;html=1;" vertex="1" parent="1">
          <mxGeometry x="-985" y="490" width="95" height="70" as="geometry" />
        </mxCell>
        <mxCell id="4nArfHA0KIjbY4lrzI_A-37" value="Grund" style="ellipse;whiteSpace=wrap;html=1;" vertex="1" parent="1">
          <mxGeometry x="-1544" y="-50" width="95" height="70" as="geometry" />
        </mxCell>
        <mxCell id="4nArfHA0KIjbY4lrzI_A-38" value="" style="endArrow=none;html=1;entryX=0.639;entryY=0.986;entryDx=0;entryDy=0;entryPerimeter=0;" edge="1" parent="1" target="4nArfHA0KIjbY4lrzI_A-10">
          <mxGeometry width="50" height="50" relative="1" as="geometry">
            <mxPoint x="-1360" y="50" as="sourcePoint" />
            <mxPoint x="-1310" y="60" as="targetPoint" />
          </mxGeometry>
        </mxCell>
        <mxCell id="4nArfHA0KIjbY4lrzI_A-39" value="" style="endArrow=none;html=1;exitX=0.125;exitY=-0.017;exitDx=0;exitDy=0;exitPerimeter=0;" edge="1" parent="1" source="_R_d_fyW46zc55ehOHIV-189" target="4nArfHA0KIjbY4lrzI_A-37">
          <mxGeometry width="50" height="50" relative="1" as="geometry">
            <mxPoint x="-1360" y="110" as="sourcePoint" />
            <mxPoint x="-1310" y="60" as="targetPoint" />
          </mxGeometry>
        </mxCell>
        <mxCell id="4nArfHA0KIjbY4lrzI_A-40" value="" style="endArrow=none;html=1;exitX=0.683;exitY=1;exitDx=0;exitDy=0;exitPerimeter=0;entryX=0.25;entryY=0;entryDx=0;entryDy=0;" edge="1" parent="1" source="_R_d_fyW46zc55ehOHIV-227" target="_R_d_fyW46zc55ehOHIV-151">
          <mxGeometry width="50" height="50" relative="1" as="geometry">
            <mxPoint x="-1360" y="110" as="sourcePoint" />
            <mxPoint x="-1310" y="60" as="targetPoint" />
          </mxGeometry>
        </mxCell>
        <mxCell id="4nArfHA0KIjbY4lrzI_A-41" value="" style="endArrow=none;html=1;exitX=0.932;exitY=0.8;exitDx=0;exitDy=0;exitPerimeter=0;" edge="1" parent="1" source="4nArfHA0KIjbY4lrzI_A-30" target="_R_d_fyW46zc55ehOHIV-151">
          <mxGeometry width="50" height="50" relative="1" as="geometry">
            <mxPoint x="-1360" y="110" as="sourcePoint" />
            <mxPoint x="-1310" y="60" as="targetPoint" />
          </mxGeometry>
        </mxCell>
        <mxCell id="4nArfHA0KIjbY4lrzI_A-43" value="" style="endArrow=none;html=1;exitX=1;exitY=0.5;exitDx=0;exitDy=0;entryX=0;entryY=0.5;entryDx=0;entryDy=0;" edge="1" parent="1" source="4nArfHA0KIjbY4lrzI_A-33" target="_R_d_fyW46zc55ehOHIV-151">
          <mxGeometry width="50" height="50" relative="1" as="geometry">
            <mxPoint x="-1360" y="110" as="sourcePoint" />
            <mxPoint x="-1310" y="60" as="targetPoint" />
          </mxGeometry>
        </mxCell>
        <mxCell id="4nArfHA0KIjbY4lrzI_A-44" value="" style="endArrow=none;html=1;exitX=0.6;exitY=0.033;exitDx=0;exitDy=0;exitPerimeter=0;" edge="1" parent="1" source="_R_d_fyW46zc55ehOHIV-157" target="4nArfHA0KIjbY4lrzI_A-31">
          <mxGeometry width="50" height="50" relative="1" as="geometry">
            <mxPoint x="-960" y="350" as="sourcePoint" />
            <mxPoint x="-910" y="300" as="targetPoint" />
          </mxGeometry>
        </mxCell>
        <mxCell id="4nArfHA0KIjbY4lrzI_A-45" value="" style="endArrow=none;html=1;exitX=1;exitY=0.25;exitDx=0;exitDy=0;" edge="1" parent="1" source="_R_d_fyW46zc55ehOHIV-157" target="_R_d_fyW46zc55ehOHIV-231">
          <mxGeometry width="50" height="50" relative="1" as="geometry">
            <mxPoint x="-960" y="350" as="sourcePoint" />
            <mxPoint x="-910" y="300" as="targetPoint" />
          </mxGeometry>
        </mxCell>
        <mxCell id="4nArfHA0KIjbY4lrzI_A-46" value="" style="endArrow=none;html=1;exitX=1;exitY=0.75;exitDx=0;exitDy=0;" edge="1" parent="1" source="_R_d_fyW46zc55ehOHIV-157" target="4nArfHA0KIjbY4lrzI_A-32">
          <mxGeometry width="50" height="50" relative="1" as="geometry">
            <mxPoint x="-960" y="350" as="sourcePoint" />
            <mxPoint x="-910" y="300" as="targetPoint" />
          </mxGeometry>
        </mxCell>
        <mxCell id="4nArfHA0KIjbY4lrzI_A-47" value="" style="endArrow=none;html=1;exitX=1;exitY=1;exitDx=0;exitDy=0;entryX=0;entryY=0;entryDx=0;entryDy=0;" edge="1" parent="1" source="_R_d_fyW46zc55ehOHIV-157" target="4nArfHA0KIjbY4lrzI_A-34">
          <mxGeometry width="50" height="50" relative="1" as="geometry">
            <mxPoint x="-960" y="350" as="sourcePoint" />
            <mxPoint x="-910" y="300" as="targetPoint" />
          </mxGeometry>
        </mxCell>
        <mxCell id="4nArfHA0KIjbY4lrzI_A-48" value="" style="endArrow=none;html=1;exitX=1;exitY=0.25;exitDx=0;exitDy=0;" edge="1" parent="1" source="_R_d_fyW46zc55ehOHIV-213" target="4nArfHA0KIjbY4lrzI_A-36">
          <mxGeometry width="50" height="50" relative="1" as="geometry">
            <mxPoint x="-960" y="350" as="sourcePoint" />
            <mxPoint x="-910" y="300" as="targetPoint" />
          </mxGeometry>
        </mxCell>
        <mxCell id="4nArfHA0KIjbY4lrzI_A-49" value="" style="endArrow=none;html=1;exitX=1;exitY=1;exitDx=0;exitDy=0;entryX=0.292;entryY=0.02;entryDx=0;entryDy=0;entryPerimeter=0;" edge="1" parent="1" source="_R_d_fyW46zc55ehOHIV-213" target="_R_d_fyW46zc55ehOHIV-233">
          <mxGeometry width="50" height="50" relative="1" as="geometry">
            <mxPoint x="-960" y="350" as="sourcePoint" />
            <mxPoint x="-910" y="300" as="targetPoint" />
          </mxGeometry>
        </mxCell>
        <mxCell id="4nArfHA0KIjbY4lrzI_A-50" value="" style="endArrow=none;html=1;exitX=0.5;exitY=0;exitDx=0;exitDy=0;" edge="1" parent="1" source="4nArfHA0KIjbY4lrzI_A-35" target="_R_d_fyW46zc55ehOHIV-213">
          <mxGeometry width="50" height="50" relative="1" as="geometry">
            <mxPoint x="-960" y="350" as="sourcePoint" />
            <mxPoint x="-910" y="300" as="targetPoint" />
          </mxGeometry>
        </mxCell>
        <mxCell id="4nArfHA0KIjbY4lrzI_A-51" value="N" style="text;html=1;strokeColor=none;fillColor=none;align=center;verticalAlign=middle;whiteSpace=wrap;rounded=0;" vertex="1" parent="1">
          <mxGeometry x="-1661" y="170" width="40" height="20" as="geometry" />
        </mxCell>
        <mxCell id="4nArfHA0KIjbY4lrzI_A-52" value="1" style="text;html=1;strokeColor=none;fillColor=none;align=center;verticalAlign=middle;whiteSpace=wrap;rounded=0;" vertex="1" parent="1">
          <mxGeometry x="-1309" y="50" width="40" height="20" as="geometry" />
        </mxCell>
        <mxCell id="4nArfHA0KIjbY4lrzI_A-53" value="N" style="text;html=1;strokeColor=none;fillColor=none;align=center;verticalAlign=middle;whiteSpace=wrap;rounded=0;" vertex="1" parent="1">
          <mxGeometry x="-1125" y="254" width="25" height="20" as="geometry" />
        </mxCell>
        <mxCell id="4nArfHA0KIjbY4lrzI_A-55" value="N" style="text;html=1;strokeColor=none;fillColor=none;align=center;verticalAlign=middle;whiteSpace=wrap;rounded=0;" vertex="1" parent="1">
          <mxGeometry x="-1140" y="340" width="40" height="20" as="geometry" />
        </mxCell>
        <mxCell id="4nArfHA0KIjbY4lrzI_A-56" value="1" style="text;html=1;strokeColor=none;fillColor=none;align=center;verticalAlign=middle;whiteSpace=wrap;rounded=0;" vertex="1" parent="1">
          <mxGeometry x="-1140" y="485" width="40" height="20" as="geometry" />
        </mxCell>
        <mxCell id="4nArfHA0KIjbY4lrzI_A-57" value="1" style="text;html=1;strokeColor=none;fillColor=none;align=center;verticalAlign=middle;whiteSpace=wrap;rounded=0;" vertex="1" parent="1">
          <mxGeometry x="-1741" y="260" width="40" height="20" as="geometry" />
        </mxCell>
        <mxCell id="4nArfHA0KIjbY4lrzI_A-58" value="N" style="text;html=1;strokeColor=none;fillColor=none;align=center;verticalAlign=middle;whiteSpace=wrap;rounded=0;" vertex="1" parent="1">
          <mxGeometry x="-1195" y="540" width="40" height="20" as="geometry" />
        </mxCell>
      </root>
    </mxGraphModel>
  </diagram>
</mxfile>
